<svg width="19" height="20" viewBox="0 0 19 20" fill="none" xmlns="http://www.w3.org/2000/svg">
<rect x="2.1748" y="-0.000610352" width="4.44444" height="7.03704" rx="2.22222" fill="#0057FF"/>
<rect x="11.8037" y="-0.000610352" width="4.44444" height="7.03704" rx="2.22222" fill="#0057FF"/>
<path fill-rule="evenodd" clip-rule="evenodd" d="M3.23925 11.5981C4.16373 11.5981 4.91317 12.3475 4.91317 13.272C4.91317 14.1965 5.66261 14.9459 6.58709 14.9459L11.8368 14.9459C12.7613 14.9459 13.5107 14.1965 13.5107 13.272C13.5107 12.3475 14.2602 11.598 15.1847 11.598H15.9668C17.3233 11.598 18.4229 12.6977 18.4229 14.0541V14.4997C18.4229 15.687 17.4604 16.6495 16.2731 16.6495H15.7972C14.8727 16.6495 14.1232 17.399 14.1232 18.3235C14.1232 19.248 13.3738 19.9974 12.4493 19.9974L5.97275 19.9974C5.04827 19.9974 4.29883 19.248 4.29883 18.3235C4.29883 17.399 3.54939 16.6496 2.62491 16.6496H2.1499C0.963083 16.6496 0.000976562 15.6875 0.000976562 14.5007V14.0542C0.000976562 12.6977 1.10061 11.5981 2.45707 11.5981H3.23925Z" fill="#0057FF"/>
</svg>
